<svg xmlns="http://www.w3.org/2000/svg" viewBox="0 0 24 24">
  <defs>
<linearGradient id="hbx-blue" x1="0" y1="0" x2="1" y2="1"><stop stop-color="#38bdf8"></stop><stop offset="1" stop-color="#2563eb"></stop></linearGradient>
<linearGradient id="hbx-gold" x1="0" y1="0" x2="1" y2="1"><stop stop-color="#fde68a"></stop><stop offset="1" stop-color="#f59e0b"></stop></linearGradient>
<linearGradient id="hbx-instagram" x1="0" y1="0" x2="1" y2="1"><stop stop-color="#f97316"></stop><stop offset="0.45" stop-color="#ec4899"></stop><stop offset="1" stop-color="#7c3aed"></stop></linearGradient>
  </defs>
  <circle cx="12" cy="12" r="10" fill="#22c55e"></circle><path d="M8.1 17.1l.6-2.1a6.2 6.2 0 1 1 2.3 2.1l-2.9.8z" fill="none" stroke="#fff" stroke-width="1.7" stroke-linecap="round" stroke-linejoin="round"></path><path d="M9.8 9.2c.2-.5.4-.5.7-.5h.5c.2 0 .4.1.5.4l.7 1.5c.1.3.1.5-.1.7l-.4.5c.6 1 1.4 1.7 2.5 2.2l.5-.6c.2-.2.4-.3.7-.2l1.5.7c.3.1.4.3.4.6 0 .7-.5 1.5-1.2 1.7-1.1.3-3.5-.5-5.4-2.4-1.9-1.9-2.5-4.2-1.9-5.1z" fill="#fff"></path>
</svg>